<?xml version="1.0" standalone="no"?>
<!DOCTYPE svg PUBLIC "-//W3C//DTD SVG 20010904//EN"
 "http://www.w3.org/TR/2001/REC-SVG-20010904/DTD/svg10.dtd">
<svg version="1.0" xmlns="http://www.w3.org/2000/svg"
 width="399.000000pt" height="399.000000pt" viewBox="0 0 399.000000 399.000000"
 preserveAspectRatio="xMidYMid meet">

<g transform="translate(0.000000,399.000000) scale(0.100000,-0.100000)"
fill="#000000" stroke="none">
<path d="M0 3887 l0 -104 98 -6 c53 -4 385 -7 737 -8 548 -1 636 -3 609 -14
-24 -11 -177 -15 -737 -21 l-707 -7 0 -165 0 -165 413 7 c226 3 541 9 698 12
268 6 286 6 293 -11 3 -10 5 -19 4 -20 -5 -4 -731 -25 -1080 -32 l-328 -6 0
-1030 c0 -742 3 -1034 11 -1044 6 -7 9 -13 6 -13 -3 0 -1 -16 3 -35 4 -19 4
-35 0 -35 -5 0 -11 12 -13 28 -4 25 -4 24 -6 -6 0 -21 4 -35 14 -38 10 -4 13
-13 9 -26 -4 -14 -2 -18 5 -14 6 4 11 2 11 -3 0 -14 -13 -14 -28 1 -9 9 -12 5
-12 -19 0 -35 16 -51 33 -34 8 8 8 11 -1 11 -7 0 -12 5 -12 10 0 24 19 7 34
-30 21 -53 21 -53 -18 -47 l-33 5 -2 -173 c-2 -162 -1 -174 17 -179 10 -4 30
-19 43 -34 16 -18 18 -22 4 -11 -11 9 -30 22 -43 28 l-22 12 0 -133 0 -133 78
-25 c42 -14 85 -25 95 -25 20 -1 47 -30 47 -52 0 -7 14 -32 30 -55 40 -55 38
-62 -10 -37 -44 23 -52 34 -18 24 22 -6 22 -6 -2 11 -14 10 -27 21 -30 24 -3
4 -15 12 -28 19 -25 13 -21 33 6 25 9 -2 -14 11 -53 30 -122 60 -116 62 -114
-38 l1 -86 37 0 c45 -1 144 -24 136 -32 -3 -3 -23 -2 -43 2 -20 4 -58 11 -84
15 l-48 6 0 -105 0 -106 71 0 71 0 -6 38 c-5 27 -4 33 3 22 9 -12 11 -11 11 6
0 12 -7 27 -15 34 -24 20 -19 50 8 50 20 0 27 -9 40 -51 10 -28 17 -62 17 -75
l0 -24 476 0 c431 0 474 2 460 16 -9 8 -16 25 -16 37 0 20 2 20 24 -8 13 -16
22 -33 19 -37 -2 -5 149 -8 336 -8 268 0 340 3 338 13 -1 6 -9 15 -17 19 -11
5 -9 7 8 7 16 1 22 -5 22 -21 l0 -22 20 22 c26 27 44 28 37 2 -5 -19 4 -19
629 -19 566 -1 673 3 622 22 -7 2 -10 8 -5 13 4 4 14 -2 23 -14 l15 -22 400 0
399 0 0 720 c0 620 -3 720 -15 720 -17 0 -39 36 -30 50 3 6 1 10 -4 10 -6 0
-11 11 -11 24 0 20 4 23 21 19 12 -4 25 0 30 8 5 8 9 107 9 222 0 200 -1 207
-20 207 -11 0 -20 -7 -20 -16 0 -8 -4 -12 -10 -9 -16 10 -11 -48 5 -69 17 -22
19 -36 7 -36 -14 0 -44 61 -39 81 3 13 0 20 -11 21 -39 4 -48 6 -65 13 -17 7
-16 10 10 38 15 17 21 26 11 19 -10 -8 -18 -9 -22 -3 -4 6 -13 8 -21 4 -12 -4
-13 0 -6 18 6 19 14 23 36 21 16 -2 31 2 36 10 5 8 8 -9 6 -42 -2 -50 0 -55
21 -58 25 -4 30 15 7 24 -9 4 -15 19 -15 35 0 25 4 29 27 29 25 0 26 1 8 14
-17 12 -17 13 9 20 15 4 31 4 36 1 6 -4 10 344 10 944 l0 951 -1995 0 -1995 0
0 -103z m503 -94 c-35 -2 -91 -2 -125 0 -35 2 -7 3 62 3 69 0 97 -1 63 -3z
m180 0 c-7 -2 -21 -2 -30 0 -10 3 -4 5 12 5 17 0 24 -2 18 -5z m1497 -23 c0
-6 45 -11 113 -12 70 -1 16 -5 -142 -10 -203 -8 -260 -7 -285 4 -28 12 -15 14
134 18 91 3 168 7 173 8 4 1 7 -2 7 -8z m630 0 c10 -7 3 -8 -25 -5 l-40 5 30
-14 c29 -15 27 -15 -50 -15 -108 -1 -152 12 -70 20 50 5 42 6 -47 7 -62 1
-109 -2 -113 -8 -3 -5 -23 -10 -43 -9 -33 1 -34 2 -12 9 l25 7 -30 5 c-16 3
58 6 165 6 110 1 202 -2 210 -8z m-2253 -66 c-3 -3 -12 -4 -19 -1 -8 3 -5 6 6
6 11 1 17 -2 13 -5z m38 -37 c16 -4 14 -5 -6 -6 -17 -1 -29 5 -33 15 -5 13 -3
14 6 6 7 -5 22 -12 33 -15z m1142 -68 c16 -23 33 -50 39 -60 6 -11 18 -27 28
-38 30 -33 37 -82 22 -140 -7 -29 -11 -62 -9 -72 7 -25 -33 -69 -61 -69 -18 0
-19 -2 -6 -11 12 -8 10 -9 -10 -5 -14 3 -54 6 -90 7 l-65 0 35 17 c47 22 47
22 30 32 -20 12 -103 6 -108 -8 -2 -7 -8 -12 -13 -12 -6 0 -7 5 -4 10 3 6 -3
10 -13 10 -18 0 -32 18 -32 41 0 5 7 9 15 9 8 0 24 9 36 21 l21 21 -6 -28 c-3
-16 -2 -35 3 -43 14 -22 25 7 24 66 -1 29 0 53 3 53 2 0 24 -9 49 -21 45 -21
82 -22 77 -1 -1 7 9 17 23 24 32 14 21 31 -16 23 -17 -4 -29 -2 -29 4 0 5 12
11 28 13 15 2 25 8 22 13 -7 13 -36 9 -83 -12 -29 -12 -40 -14 -49 -5 -18 18
-30 14 -23 -8 9 -27 -3 -25 -15 3 l-9 22 0 -22 c-1 -30 -7 -29 -41 6 -29 28
-29 29 -10 46 24 21 26 40 5 31 -8 -3 -15 -1 -15 5 0 5 20 18 44 29 24 10 47
23 51 29 3 6 11 9 16 6 5 -4 9 -1 9 4 0 6 7 11 16 11 9 0 27 9 41 20 14 11 30
20 34 20 5 0 21 -19 36 -41z m176 -126 c-13 -8 -23 -19 -23 -23 0 -12 24 -13
382 -10 322 2 336 1 334 -17 -3 -19 32 -17 -596 -32 -63 -1 -65 -2 -80 -34
-11 -23 -22 -32 -40 -32 -22 0 -25 5 -28 43 -2 25 1 42 7 42 6 0 11 -7 11 -15
0 -8 5 -15 11 -15 5 0 7 5 4 10 -3 6 1 10 9 10 22 0 20 30 -1 31 -10 1 -21 1
-25 0 -14 -2 -8 12 14 36 12 13 26 23 32 22 6 0 1 -7 -11 -16z m902 -11 c-3
-3 -11 0 -18 7 -9 10 -8 11 6 5 10 -3 15 -9 12 -12z m35 -31 c0 -23 -31 -31
-127 -31 -96 0 -103 1 -103 20 0 17 8 19 68 22 83 4 162 -2 162 -11z m-2173
-7 c-3 -3 -12 -4 -19 -1 -8 3 -5 6 6 6 11 1 17 -2 13 -5z m810 0 c-3 -3 -12
-4 -19 -1 -8 3 -5 6 6 6 11 1 17 -2 13 -5z m1290 -50 c-3 -3 -12 -4 -19 -1 -8
3 -5 6 6 6 11 1 17 -2 13 -5z m-891 -152 c-9 -8 -26 10 -26 26 1 15 2 15 15
-2 8 -11 13 -21 11 -24z m92 0 c38 -12 42 -16 42 -44 0 -45 -19 -102 -46 -134
-22 -28 -23 -28 -17 -5 4 17 3 22 -5 17 -7 -4 -15 -1 -18 8 -3 8 -26 29 -52
46 -25 16 -40 30 -32 30 9 0 11 10 7 38 -5 25 -3 32 3 22 9 -13 10 -13 10 0 0
13 1 13 10 0 5 -8 10 -11 10 -6 0 5 7 2 17 -5 15 -13 16 -11 9 14 -7 29 2 56
13 40 3 -5 25 -15 49 -21z m-257 -37 c-1 -5 -13 -11 -28 -13 -16 -1 -46 -5
-68 -8 -54 -8 -35 11 25 24 52 12 71 11 71 -3z m24 -35 c10 -16 -31 -49 -54
-43 -49 13 -26 41 41 52 4 0 9 -3 13 -9z m-194 -53 c-12 -12 -79 -18 -85 -8
-3 4 8 12 25 18 16 6 29 7 29 2 0 -5 8 -9 18 -9 9 0 13 4 7 8 -5 4 -17 16 -25
27 -10 15 -7 13 13 -4 17 -16 24 -28 18 -34z m-98 12 c-6 -6 -23 -9 -39 -6
-29 4 -28 4 4 6 17 0 32 6 32 13 0 6 3 8 7 5 4 -4 2 -12 -4 -18z m353 -27
l-29 -27 23 32 c13 18 26 30 29 28 3 -3 -8 -18 -23 -33z m-772 7 c-3 -6 0 -15
7 -20 10 -6 7 -8 -9 -6 -25 1 -27 8 -10 25 15 15 21 16 12 1z m-97 -5 c-3 -3
-12 -4 -19 -1 -8 3 -5 6 6 6 11 1 17 -2 13 -5z m190 -7 c0 -9 -10 -11 -31 -8
l-31 5 30 7 c17 4 30 7 31 8 0 0 1 -5 1 -12z m78 3 c3 -5 1 -10 -4 -10 -6 0
-11 5 -11 10 0 6 2 10 4 10 3 0 8 -4 11 -10z m95 -4 c-7 -7 -13 -7 -20 0 -6 6
-3 10 10 10 13 0 16 -4 10 -10z m133 7 c-13 -2 -35 -2 -50 0 -16 2 -5 4 22 4
28 0 40 -2 28 -4z m1327 -9 c0 -2 -9 -4 -20 -4 -11 0 -20 4 -20 9 0 5 9 7 20
4 11 -3 20 -7 20 -9z m-1300 -34 c-25 -20 -40 -26 -55 -20 -11 4 -25 5 -32 3
-14 -5 -65 26 -59 36 3 3 44 7 93 8 l88 2 -35 -29z m-248 7 c-24 -7 -36 -7
-44 1 -9 9 -1 12 33 11 l44 -1 -33 -11z m-227 -7 c-3 -5 -11 -10 -16 -10 -6 0
-7 5 -4 10 3 6 11 10 16 10 6 0 7 -4 4 -10z m-38 -7 c-8 -8 -39 -12 -122 -17
-33 -2 -78 -9 -100 -14 -22 -6 -88 -11 -146 -10 -58 0 -116 -3 -127 -7 -24 -7
-27 1 -12 25 7 11 37 16 122 21 173 8 392 10 385 2z m53 -13 c0 -5 -7 -10 -16
-10 -8 0 -12 5 -9 10 3 6 10 10 16 10 5 0 9 -4 9 -10z m-700 -4 c0 -2 2 -11 6
-19 7 -20 -135 -24 -148 -5 -15 25 -8 28 67 28 41 0 75 -2 75 -4z m100 -2 c0
-9 -28 -34 -38 -34 -5 0 -17 9 -27 20 -18 20 -17 20 23 20 23 0 42 -3 42 -6z
m1225 -11 c3 -8 3 -19 0 -23 -3 -5 14 -15 37 -21 62 -18 93 -59 128 -170 31
-96 54 -130 97 -143 20 -6 20 -9 7 -34 -8 -16 -11 -40 -8 -59 4 -18 2 -33 -3
-33 -26 0 -144 44 -164 61 -12 10 -26 19 -31 19 -4 0 -8 5 -8 11 0 6 -7 17
-15 25 -8 9 -15 24 -15 34 0 10 -4 21 -10 25 -5 3 -7 11 -4 19 3 7 -6 18 -20
24 -18 8 -24 16 -19 28 4 12 3 15 -5 10 -7 -4 -15 0 -18 9 -5 12 -9 13 -14 5
-4 -7 -13 -9 -19 -6 -16 10 -14 26 4 26 20 0 19 16 -5 69 -24 52 -26 75 -5 67
19 -7 19 13 0 40 -19 27 -14 31 40 31 29 0 46 -5 50 -14z m-211 -11 c-4 -9
-14 -37 -22 -61 -13 -36 -17 -41 -23 -25 -3 10 -1 34 7 52 7 17 9 32 3 32 -5
0 -9 -5 -9 -12 0 -6 -3 -8 -6 -5 -11 10 13 33 36 34 17 2 20 -2 14 -15z m-102
-35 c9 -19 9 -20 -3 -11 -8 6 -24 10 -37 8 -15 -3 -21 0 -17 7 4 6 14 8 22 5
11 -5 13 -2 9 9 -8 23 12 8 26 -18z m-925 7 c-3 -3 -12 -4 -19 -1 -8 3 -5 6 6
6 11 1 17 -2 13 -5z m223 -18 c0 -2 -11 -6 -25 -8 -13 -3 -22 -1 -19 3 5 9 44
13 44 5z m2465 -56 c3 -5 1 -10 -4 -10 -6 0 -11 5 -11 10 0 6 2 10 4 10 3 0 8
-4 11 -10z m-550 -36 c30 -19 85 -104 85 -130 0 -11 -11 -36 -25 -55 -13 -20
-21 -40 -17 -44 4 -5 2 -5 -5 -2 -6 4 -14 1 -16 -5 -4 -10 -8 -9 -16 2 -18 25
-13 41 25 76 19 19 29 34 22 34 -8 0 -19 -5 -25 -11 -23 -23 -41 -1 -48 58 -4
32 -9 66 -11 76 -6 21 0 21 31 1z m-1285 -39 c0 -5 -5 -3 -10 5 -5 8 -10 20
-10 25 0 6 5 3 10 -5 5 -8 10 -19 10 -25z m1600 -70 c0 -17 -4 -18 -37 -9 -33
9 -28 24 7 24 20 0 30 -5 30 -15z m-1593 -162 c-2 -21 -4 -4 -4 37 0 41 2 58
4 38 2 -21 2 -55 0 -75z m373 56 c0 -6 -4 -7 -10 -4 -5 3 -10 11 -10 16 0 6 5
7 10 4 6 -3 10 -11 10 -16z m459 -84 c24 -12 121 -39 212 -59 14 -3 38 -18 53
-32 23 -23 37 -28 101 -32 l75 -5 0 -41 c0 -23 -4 -57 -10 -75 -18 -64 -47
-66 -153 -11 -43 22 -99 46 -125 54 -26 8 -66 24 -89 35 -23 12 -46 21 -51 21
-6 0 -29 11 -53 24 -24 14 -46 23 -51 20 -18 -12 -6 14 16 33 13 12 27 35 31
52 8 36 7 36 44 16z m-138 -22 c13 -16 12 -17 -3 -4 -10 7 -18 15 -18 17 0 8
8 3 21 -13z m1087 -25 c28 -18 51 -36 51 -39 1 -3 -14 -4 -31 -1 l-33 4 29
-16 c16 -9 35 -24 42 -34 16 -20 18 -62 4 -62 -5 0 -10 5 -10 10 0 6 -4 10
-10 10 -5 0 -10 -9 -10 -20 0 -14 -7 -20 -24 -20 -15 0 -26 -7 -29 -20 -4 -17
-11 -19 -39 -14 -47 9 -55 20 -38 51 8 15 18 25 21 22 7 -5 39 20 39 31 0 4
-19 4 -42 0 -63 -12 -79 8 -36 44 21 18 21 20 3 26 -17 6 -17 7 -2 13 9 3 24
3 34 0 11 -4 14 -3 9 6 -9 14 -1 41 13 41 5 0 31 -15 59 -32z m-1351 -48 c-2
-24 -19 -21 -23 3 -1 9 4 17 11 17 8 0 13 -9 12 -20z m-1171 -45 c-11 -8 -25
-15 -30 -15 -6 1 0 7 14 15 32 19 40 18 16 0z m1187 0 c-3 -9 -8 -14 -10 -11
-3 3 -2 9 2 15 9 16 15 13 8 -4z m231 4 c10 0 28 -6 38 -13 18 -13 18 -14 -4
-20 -30 -8 -142 -8 -163 0 -30 12 34 44 75 39 19 -3 44 -5 54 -6z m1621 -9 c3
-5 1 -10 -4 -10 -6 0 -11 5 -11 10 0 6 2 10 4 10 3 0 8 -4 11 -10z m-2198 -57
c-3 -10 -5 -2 -5 17 0 19 2 27 5 18 2 -10 2 -26 0 -35z m1575 18 c-9 -10 -21
-15 -26 -10 -11 9 2 31 15 24 5 -4 9 -1 9 5 0 6 4 9 10 5 5 -3 2 -13 -8 -24z
m-176 -3 c5 -8 2 -9 -9 -5 -10 3 -17 2 -17 -3 0 -6 6 -10 13 -11 6 0 2 -4 -11
-10 -13 -5 -21 -13 -17 -19 4 -6 -1 -7 -11 -3 -15 5 -15 7 0 15 9 5 13 14 10
20 -4 6 0 14 7 19 19 12 26 11 35 -3z m-2179 -85 c-3 -10 -5 -2 -5 17 0 19 2
27 5 18 2 -10 2 -26 0 -35z m-50 22 c0 -8 -4 -15 -9 -15 -10 0 -11 14 -1 23 9
10 10 9 10 -8z m324 -16 c30 -32 36 -49 19 -49 -5 0 -10 -5 -10 -11 0 -8 5 -8
15 1 12 10 16 8 25 -15 17 -45 13 -65 -15 -65 -22 0 -24 -4 -22 -37 2 -41 6
-42 80 -30 21 3 27 0 27 -14 0 -10 15 -33 34 -51 41 -40 86 -128 85 -165 0
-27 -1 -27 -11 -6 -6 12 -22 26 -37 31 -14 6 -34 13 -43 17 -10 4 -18 3 -18
-3 0 -5 15 -13 34 -16 19 -4 37 -13 40 -21 3 -10 0 -12 -11 -8 -11 5 -14 3 -8
-6 6 -10 3 -11 -14 -2 -14 8 -21 8 -21 1 0 -6 12 -15 26 -20 32 -13 37 -12 29
0 -3 6 -2 10 4 10 5 0 13 -10 17 -22 4 -13 12 -26 18 -30 8 -6 7 -8 -1 -8 -7
0 -13 -12 -13 -27 -1 -27 -1 -27 -15 -9 -8 10 -12 23 -9 28 3 5 -3 12 -14 15
-11 3 -23 11 -26 19 -3 7 -12 11 -21 8 -8 -4 -17 1 -21 10 -3 9 -10 14 -14 11
-4 -3 -25 2 -46 10 -26 11 -34 11 -23 3 9 -7 14 -19 12 -25 -3 -7 0 -13 6 -13
6 0 11 -4 11 -10 0 -19 -21 -10 -50 22 -16 17 -27 35 -24 40 3 4 -2 8 -10 8
-19 0 -20 5 -6 31 10 17 7 19 -19 19 -28 0 -50 27 -38 47 7 12 20 189 13 182
-3 -3 -8 -23 -11 -45 -8 -63 -14 -108 -14 -124 -2 -34 -24 11 -25 52 -1 24 -6
52 -10 63 -6 16 -6 17 3 5 6 -8 11 -10 11 -4 0 6 -7 17 -15 24 -35 29 -10 152
39 192 31 26 54 22 87 -13z m2036 -6 c13 -14 19 -30 16 -43 -6 -23 -28 -27
-37 -5 -3 8 -12 12 -21 9 -10 -4 -15 0 -15 14 0 12 -4 24 -10 27 -5 3 -10 11
-10 16 0 17 54 5 77 -18z m936 10 c-7 -2 -19 -2 -25 0 -7 3 -2 5 12 5 14 0 19
-2 13 -5z m-1017 -29 c0 -23 -24 -54 -43 -54 -18 0 -16 27 5 55 19 28 37 27
38 -1z m311 0 c-3 -3 -12 -4 -19 -1 -8 3 -5 6 6 6 11 1 17 -2 13 -5z m-2547
-51 c-11 -17 -11 -17 -6 0 3 10 7 26 7 35 1 15 2 15 6 0 2 -10 -1 -25 -7 -35z
m2739 14 c9 3 0 -8 -19 -25 -19 -16 -37 -25 -39 -19 -2 5 4 16 14 23 10 8 14
18 10 26 -6 10 -5 10 5 1 7 -6 20 -9 29 -6z m-1626 -24 c-7 -2 -19 -2 -25 0
-7 3 -2 5 12 5 14 0 19 -2 13 -5z m2061 -8 c-6 -16 -24 -21 -24 -7 0 11 11 22
21 22 5 0 6 -7 3 -15z m-2129 -9 c-35 -15 -50 -32 -60 -66 -6 -23 -5 -23 14 5
26 38 27 26 1 -24 -23 -46 -60 -62 -60 -26 0 13 -3 31 -7 41 -4 12 -3 15 5 10
7 -4 12 -17 13 -29 0 -19 2 -17 12 8 30 76 46 95 80 95 l32 -1 -30 -13z m1915
-3 c9 -2 21 -13 28 -24 11 -17 9 -19 -15 -19 -32 0 -61 15 -50 26 4 4 1 14 -6
22 -10 13 -9 15 8 8 11 -5 27 -10 35 -13z m-2110 -11 c0 -4 -16 -6 -35 -4 -19
2 -35 6 -35 8 0 2 16 4 35 4 19 0 35 -4 35 -8z m-722 -40 c2 -7 -5 -12 -16
-12 -11 0 -25 -6 -31 -14 -10 -11 -9 -14 3 -12 9 1 18 5 22 9 17 17 21 -7 7
-41 -19 -47 -16 -45 -47 -31 -16 7 -25 18 -22 26 4 10 -1 12 -22 7 -36 -9 -38
-12 -22 -27 10 -9 11 -9 6 1 -12 21 4 13 50 -24 24 -20 42 -30 38 -21 -5 13 2
12 35 -6 24 -13 41 -29 41 -40 0 -17 -2 -17 -27 -3 -75 41 -162 69 -231 74
-71 5 -73 5 -55 23 10 10 38 21 63 24 25 4 53 14 62 22 10 9 26 13 38 10 12
-3 20 0 20 7 0 13 59 46 74 42 6 -1 12 -8 14 -14z m239 -12 c25 -19 25 -20 4
-20 -11 0 -21 6 -21 13 0 7 -7 4 -15 -7 -15 -20 -20 -10 -9 18 8 20 11 20 41
-4z m546 -16 c-4 -52 -13 -55 -13 -6 0 23 4 42 8 42 5 0 7 -16 5 -36z m1586
19 c-3 -31 0 -34 24 -22 21 11 21 10 5 -6 -20 -21 -43 -15 -51 14 -3 12 -1 19
4 15 5 -3 9 0 9 5 0 6 3 11 6 11 3 0 4 -8 3 -17z m-1671 -9 c8 -15 12 -15 38
2 16 11 -7 -16 -50 -58 -50 -48 -83 -74 -87 -67 -4 7 -12 8 -18 5 -6 -4 -11
-1 -11 8 0 8 20 22 45 32 58 22 64 32 34 57 l-24 19 27 -16 c36 -21 39 -20 28
9 -11 28 3 35 18 9z m-992 -25 c15 -29 15 -33 0 -48 -15 -14 -18 -14 -27 -1
-9 12 -10 11 -6 -6 2 -12 0 -29 -5 -38 -7 -12 -5 -22 4 -33 11 -15 10 -16 -10
-11 -20 6 -21 4 -10 -9 7 -9 13 -21 14 -27 0 -6 2 -17 2 -23 1 -7 8 -13 16
-13 13 0 26 -26 31 -62 1 -9 -15 -29 -36 -45 -21 -15 -39 -32 -39 -37 0 -5 10
0 23 11 55 49 66 34 13 -18 -19 -18 -32 -37 -29 -43 3 -5 1 -6 -5 -2 -14 9
-74 -53 -65 -67 4 -6 1 -7 -7 -2 -10 6 -12 4 -6 -10 5 -15 4 -16 -8 -6 -9 8
-16 8 -20 2 -4 -5 1 -14 10 -19 10 -6 15 -16 11 -25 -3 -9 -1 -18 6 -20 9 -3
9 -8 0 -18 -7 -7 -13 -22 -13 -33 -1 -25 -28 30 -40 81 -10 40 22 102 44 84 9
-8 13 -7 13 4 0 8 -5 15 -11 15 -5 0 8 18 29 40 21 22 35 40 29 40 -5 0 -16
-6 -23 -12 -10 -11 -11 -9 -5 5 3 10 24 27 45 38 22 11 39 22 39 25 0 2 -9 0
-21 -6 -11 -7 -27 -9 -34 -6 -7 2 -16 -2 -19 -10 -3 -8 -15 -14 -26 -14 -27 0
-27 44 0 67 25 21 26 35 3 26 -16 -6 -16 -5 -5 10 8 9 15 38 17 64 4 51 16 84
54 146 28 45 45 47 67 6z m2564 11 c0 -5 -5 -10 -11 -10 -5 0 -7 5 -4 10 3 6
8 10 11 10 2 0 4 -4 4 -10z m857 4 c-3 -3 -12 -4 -19 -1 -8 3 -5 6 6 6 11 1
17 -2 13 -5z m-2367 -23 c0 -10 -42 -23 -49 -15 -7 6 20 24 37 24 6 0 12 -4
12 -9z m1704 -55 c-3 -7 7 -22 21 -34 24 -21 25 -21 25 -2 0 21 27 40 59 40
25 0 27 -17 5 -41 -14 -16 -14 -18 5 -29 l22 -11 -21 -30 c-22 -30 -17 -35 23
-20 20 8 31 3 68 -29 36 -32 41 -39 24 -41 -11 -1 -24 -1 -28 0 -4 1 -3 -8 3
-19 6 -11 16 -20 22 -20 6 0 16 -8 23 -17 11 -14 15 -15 29 -4 13 11 17 9 27
-12 6 -14 20 -28 30 -30 19 -5 27 -37 9 -37 -5 0 -8 -13 -6 -30 3 -30 -17 -44
-27 -17 -2 6 -8 9 -12 5 -12 -12 17 -33 60 -43 30 -8 39 -15 37 -28 -2 -9 2
-17 7 -17 6 0 8 -7 5 -15 -7 -16 11 -21 20 -6 9 14 58 5 72 -13 6 -9 10 -26 7
-36 -3 -11 -2 -28 2 -37 13 -29 14 -47 5 -53 -5 -3 -11 -17 -12 -30 -3 -22 2
-25 29 -28 40 -4 55 -28 46 -73 -5 -28 -4 -31 11 -26 10 4 23 -1 33 -13 20
-24 38 -26 29 -5 -8 22 57 20 75 -2 16 -20 39 -60 39 -68 0 -3 -13 -5 -29 -5
-17 0 -39 10 -56 28 l-28 27 7 -30 c10 -41 33 -75 51 -75 23 0 18 -41 -5 -47
-11 -3 -18 -8 -16 -12 3 -4 0 -13 -6 -21 -8 -12 -9 -12 -4 3 6 18 -18 25 -29
7 -21 -34 -73 19 -60 61 7 21 -10 27 -18 7 -3 -9 -10 -6 -22 10 -15 20 -18 21
-38 7 -32 -22 -44 -19 -62 19 -15 31 -15 37 0 65 15 30 24 35 53 32 25 -4 13
27 -36 89 -2 3 -8 -3 -13 -13 -6 -9 -14 -15 -19 -12 -4 3 -10 -2 -14 -10 -13
-36 -52 -4 -47 39 2 10 -1 16 -6 13 -5 -3 -14 3 -20 13 -10 15 -9 19 6 23 22
5 36 47 15 47 -8 0 -14 6 -14 14 0 9 -9 12 -27 9 -27 -4 -27 -4 -9 11 11 9 26
16 33 16 7 0 13 5 13 10 0 6 -16 10 -36 10 -24 0 -33 -4 -28 -12 4 -6 3 -8 -3
-5 -6 4 -24 2 -42 -3 -37 -10 -38 -8 -9 33 12 18 15 26 8 20 -23 -21 -30 -15
-30 27 0 43 -2 45 -30 30 -15 -8 -21 -6 -29 8 -14 26 -8 48 19 77 21 22 22 28
10 35 -8 5 -19 10 -23 10 -4 0 -3 9 3 19 5 11 10 22 10 25 0 12 -28 6 -39 -8
-10 -12 -16 -10 -38 10 -14 13 -30 21 -35 18 -28 -18 -52 58 -26 84 9 9 5 12
-19 12 -34 0 -49 14 -45 43 3 13 -4 17 -27 17 -16 0 -33 -4 -36 -10 -10 -16
-28 -12 -21 5 3 8 9 22 12 31 5 12 1 14 -22 9 -28 -6 -28 -6 -10 9 26 21 56
20 56 0 0 -11 5 -14 16 -10 9 3 21 6 27 6 28 1 -30 30 -60 30 -18 0 -33 2 -33
5 0 15 41 47 53 42 11 -4 13 0 9 15 -5 20 -4 20 26 -2 17 -12 28 -28 26 -34z
m-1556 18 c32 -19 57 -50 66 -84 5 -19 5 -21 -3 -9 -6 9 -33 34 -60 54 -28 21
-48 42 -45 47 7 11 12 10 42 -8z m-103 -35 c-8 -36 2 -38 15 -3 9 22 13 24 25
14 18 -15 15 -83 -5 -119 -10 -19 -10 -25 1 -32 8 -5 9 -9 4 -9 -6 0 -18 8
-26 18 -15 17 -15 20 0 30 13 8 10 10 -14 7 -16 -2 -32 -4 -35 -4 -3 -1 2 -6
10 -11 12 -8 9 -15 -20 -46 -19 -20 -29 -34 -23 -30 8 4 5 -6 -5 -23 -34 -61
-39 -26 -6 43 13 28 13 28 -14 21 -21 -5 -24 -4 -15 6 6 6 9 17 7 24 -5 11 9
19 81 45 l30 11 -40 20 c-35 17 -37 19 -12 15 27 -3 29 -2 25 29 -3 24 0 31
10 28 9 -4 11 -15 7 -34z m2005 26 c0 -11 -53 -55 -59 -50 -3 3 6 16 20 30 23
23 39 31 39 20z m-3105 -32 c-5 -15 -4 -16 6 -5 28 27 149 6 253 -46 65 -32
63 -29 40 -48 -18 -15 -18 -15 3 -5 34 17 45 14 38 -11 -7 -22 -6 -22 7 -4 19
24 33 6 24 -30 -5 -17 -3 -23 4 -19 5 3 10 14 10 23 0 25 17 2 28 -38 6 -19
11 -27 11 -17 1 24 12 21 39 -13 33 -42 50 -99 41 -140 -4 -19 -3 -41 1 -50 7
-10 9 -2 10 28 0 23 5 42 10 42 6 0 10 -10 10 -22 0 -12 3 -18 7 -15 12 13 53
-35 59 -69 3 -18 12 -38 20 -45 28 -23 13 -28 -37 -13 -89 27 -192 71 -178 77
8 4 2 4 -12 1 -42 -9 -129 37 -175 91 l-41 47 -27 -46 c-37 -64 -142 -173
-187 -197 -21 -10 -47 -32 -59 -49 -12 -17 -24 -29 -27 -26 -15 14 95 306 116
306 5 0 15 16 21 36 l12 35 29 -60 c15 -34 31 -61 34 -61 3 0 -6 22 -20 50
-42 83 -29 110 39 75 34 -18 36 -18 36 -4 0 6 -19 30 -42 54 -24 24 -53 57
-66 74 l-23 31 35 21 c42 25 48 36 8 15 -34 -17 -86 -10 -78 11 3 8 6 19 6 24
0 5 5 9 11 9 6 0 8 -7 4 -17z m961 -48 c-8 -32 -20 -63 -26 -69 -8 -8 -10 -7
-6 4 2 8 12 41 21 74 9 32 18 56 21 53 3 -3 -2 -31 -10 -62z m-121 26 c-3 -6
-11 -11 -17 -11 -6 0 -6 6 2 15 14 17 26 13 15 -4z m332 -18 c-3 -10 -5 -4 -5
12 0 17 2 24 5 18 2 -7 2 -21 0 -30z m210 -5 c-3 -7 -5 -2 -5 12 0 14 2 19 5
13 2 -7 2 -19 0 -25z m1942 -2 c28 5 42 2 55 -11 13 -13 20 -15 29 -6 6 6 18
11 27 11 9 -1 6 -5 -9 -14 -23 -13 -23 -14 -5 -24 10 -6 15 -14 11 -18 -5 -5
-11 -3 -15 3 -8 13 -64 8 -104 -8 -15 -6 -38 -28 -52 -50 -17 -25 -34 -39 -47
-39 -18 0 -19 3 -9 15 7 8 10 21 7 29 -3 7 0 19 6 26 9 10 9 11 0 6 -10 -5
-13 6 -13 43 0 40 3 49 14 45 8 -3 23 -1 33 4 13 8 20 7 26 -4 6 -10 19 -12
46 -8z m-394 -6 c3 -5 2 -10 -4 -10 -5 0 -13 5 -16 10 -3 6 -2 10 4 10 5 0 13
-4 16 -10z m-1675 -42 c18 -13 40 -34 49 -47 15 -23 14 -23 -7 -17 -22 7 -31
-7 -12 -19 6 -4 7 -11 4 -17 -4 -6 -13 1 -22 18 l-16 29 -7 -33 c-10 -48 -18
-50 -12 -4 5 38 4 41 -31 57 -42 20 -45 32 -13 45 31 12 30 12 67 -12z m1390
10 c0 -4 -8 -12 -17 -17 -17 -10 -17 -10 0 -11 9 0 17 -7 17 -15 0 -21 -33
-19 -61 4 -20 16 -21 21 -10 35 13 16 71 19 71 4z m550 -18 c0 -28 -38 -46
-57 -27 -12 12 -12 16 0 28 22 22 57 21 57 -1z m-80 1 c0 -14 -18 -23 -31 -15
-8 4 -7 9 2 15 18 11 29 11 29 0z m-2004 -56 c1 -8 -2 -17 -7 -21 -5 -3 -9 7
-9 22 0 27 12 26 16 -1z m1969 5 c0 -7 -5 -15 -10 -17 -6 -2 -11 6 -11 17 0
11 5 19 11 17 5 -2 10 -10 10 -17z m288 -17 c-7 -3 -13 -12 -13 -21 0 -15 -2
-15 -10 -2 -7 11 -5 19 7 27 9 7 19 10 22 7 3 -4 0 -9 -6 -11z m172 -2 c3 -5
1 -12 -4 -15 -5 -3 -11 1 -15 9 -6 16 9 21 19 6z m-2396 -44 c1 -5 -3 -5 -9
-2 -5 3 -10 16 -9 28 0 21 1 21 9 2 5 -11 9 -24 9 -28z m81 37 c0 -8 -19 -13
-24 -6 -3 5 1 9 9 9 8 0 15 -2 15 -3z m2110 -48 c0 -6 -7 -1 -15 10 -12 16
-14 16 -15 3 0 -9 9 -28 21 -43 11 -14 19 -26 16 -26 -10 0 -47 38 -47 49 0 6
-5 11 -11 11 -6 0 -3 7 5 16 9 8 16 21 16 27 1 13 29 -33 30 -47z m-2777 27
c39 -22 77 -54 77 -65 0 -13 -28 -9 -33 5 -2 6 -8 9 -12 5 -10 -10 22 -41 35
-33 5 3 18 1 27 -5 16 -9 15 -10 -4 -5 -13 4 -23 2 -23 -3 0 -5 -15 -7 -32 -5
l-33 3 28 -9 c16 -5 36 -16 45 -23 14 -11 15 -11 9 6 -6 16 -5 17 8 6 22 -18
0 -31 -32 -19 -27 10 -29 6 -6 -16 15 -16 15 -17 -7 -13 -14 2 -30 16 -41 38
-10 19 -23 41 -29 48 -8 9 -7 12 5 12 20 0 20 19 -1 27 -8 3 -13 12 -9 21 3 8
-3 21 -12 28 -27 20 2 18 40 -3z m2067 -2 c0 -6 -4 -13 -10 -16 -5 -3 -10 1
-10 9 0 9 5 16 10 16 6 0 10 -4 10 -9z m-71 -10 c11 -7 9 -10 -8 -16 -11 -3
-26 -15 -31 -25 -8 -15 -5 -22 12 -34 14 -10 24 -12 28 -5 4 6 12 4 20 -6 7
-9 20 -13 27 -10 48 18 104 -86 73 -135 -8 -12 -13 -11 -39 8 -39 29 -54 28
-45 0 8 -27 32 -47 57 -48 23 0 23 -42 -2 -57 -15 -10 -20 -8 -30 11 -10 18
-71 53 -71 41 0 -15 14 -34 21 -29 14 8 10 -22 -4 -34 -16 -14 -67 29 -67 56
1 13 4 10 15 -8 l14 -25 1 25 c0 14 -9 42 -20 63 -11 21 -18 43 -14 48 4 7 -3
9 -17 7 -20 -2 -24 -9 -24 -36 0 -30 -16 -51 -39 -52 -4 0 -6 11 -4 25 3 13 0
26 -6 29 -6 2 -3 5 7 5 9 1 17 8 17 17 0 8 -4 12 -10 9 -17 -10 -11 4 10 25
23 23 38 27 20 5 -19 -23 -4 -30 17 -9 10 9 13 19 8 21 -33 11 -35 19 -15 59
11 23 19 32 20 21 0 -27 20 -10 20 18 0 13 8 29 18 34 21 13 24 13 41 2z
m-678 -32 c9 -17 8 -24 -2 -30 -11 -8 -10 -12 5 -24 10 -7 15 -19 11 -25 -4
-7 -2 -15 4 -19 8 -6 9 -14 1 -32 -10 -22 -10 -23 -6 -1 2 12 0 22 -5 22 -5 0
-9 7 -9 15 0 8 -9 24 -20 35 -11 11 -17 26 -15 35 3 8 7 22 10 30 6 20 12 19
26 -6z m1481 -11 c-8 -8 -9 -4 -5 13 4 13 8 18 11 10 2 -7 -1 -18 -6 -23z
m-2097 12 c-3 -5 -12 -10 -18 -10 -7 0 -6 4 3 10 19 12 23 12 15 0z m-136 -17
c-2 -30 1 -39 9 -25 6 9 14 0 28 -28 12 -25 24 -38 32 -35 8 3 11 0 8 -7 -3
-7 -9 -21 -12 -30 -9 -25 -17 -22 -38 14 -17 28 -17 31 -3 25 10 -4 17 -2 17
4 0 7 -10 9 -25 5 -14 -4 -25 -2 -25 4 0 5 5 10 11 10 5 0 7 5 4 11 -4 6 -13
8 -21 5 -9 -3 -13 1 -10 12 4 23 17 52 23 52 2 0 3 -8 2 -17z m1201 -5 c0 -19
-2 -20 -10 -8 -13 19 -13 30 0 30 6 0 10 -10 10 -22z m497 -13 c8 -22 -6 -33
-17 -15 -13 20 -12 30 0 30 6 0 13 -7 17 -15z m36 -13 c-3 -12 -9 -22 -14 -22
-12 0 -11 7 2 32 13 25 20 19 12 -10z m57 -13 c0 -6 -4 -7 -10 -4 -5 3 -10 11
-10 16 0 6 5 7 10 4 6 -3 10 -11 10 -16z m-544 -24 c1 -8 -2 -13 -7 -9 -5 3
-9 12 -9 21 0 19 13 9 16 -12z m890 10 c-3 -20 -16 -31 -16 -13 0 13 8 28 16
28 1 0 1 -7 0 -15z m-2041 -5 c-3 -5 -11 -10 -16 -10 -6 0 -7 5 -4 10 3 6 11
10 16 10 6 0 7 -4 4 -10z m1671 -44 c4 -34 3 -36 -15 -27 -24 13 -37 61 -19
72 18 11 28 -2 34 -45z m424 44 c0 -5 -2 -10 -4 -10 -3 0 -8 5 -11 10 -3 6 -1
10 4 10 6 0 11 -4 11 -10z m-3395 -76 c-9 -27 -19 -59 -21 -70 -2 -12 -11 -35
-19 -50 -8 -16 -15 -38 -15 -49 0 -15 -2 -17 -9 -6 -7 12 -4 31 17 91 3 8 7
22 8 30 1 8 11 33 22 55 11 21 17 46 14 55 -4 11 -2 12 7 4 10 -9 9 -22 -4
-60z m2372 44 c-3 -8 -6 -5 -6 6 -1 11 2 17 5 13 3 -3 4 -12 1 -19z m-1627
-18 c0 -13 -5 -18 -15 -14 -12 5 -13 10 -4 20 15 19 19 18 19 -6z m1185 10 c3
-5 1 -10 -4 -10 -6 0 -11 5 -11 10 0 6 2 10 4 10 3 0 8 -4 11 -10z m-118 -45
c2 -19 -2 -35 -7 -35 -6 0 -9 3 -9 8 4 22 -3 31 -18 25 -13 -4 -11 1 6 15 13
12 24 22 25 22 1 0 2 -16 3 -35z m-1067 -17 c0 -26 -25 -17 -26 9 -1 14 3 20
12 16 8 -3 14 -14 14 -25z m1607 0 c-3 -8 -6 -5 -6 6 -1 11 2 17 5 13 3 -3 4
-12 1 -19z m-1234 5 c-7 -2 -21 -2 -30 0 -10 3 -4 5 12 5 17 0 24 -2 18 -5z
m137 -3 c0 -12 -37 -14 -44 -2 -2 4 6 9 20 10 13 1 24 -3 24 -8z m618 -26 c-4
-3 -12 5 -18 18 -12 22 -12 22 6 6 10 -10 15 -20 12 -24z m-108 22 c0 -3 -4
-8 -10 -11 -5 -3 -10 -1 -10 4 0 6 5 11 10 11 6 0 10 -2 10 -4z m160 -27 c0
-6 -4 -7 -10 -4 -5 3 -10 11 -10 16 0 6 5 7 10 4 6 -3 10 -11 10 -16z m-1190
-19 c6 -11 6 -21 1 -24 -5 -3 -14 8 -20 24 -11 33 2 32 19 0z m69 -77 c1 -7
-6 -13 -15 -13 -8 0 -13 4 -10 9 3 5 -1 25 -9 45 -24 57 -16 76 10 21 13 -27
24 -56 24 -62z m1593 81 c17 -14 37 -23 45 -20 8 3 11 1 8 -5 -4 -5 -15 -7
-25 -4 -13 4 -17 1 -16 -11 0 -9 -7 -21 -17 -28 -34 -21 -75 52 -45 82 16 16
15 16 50 -14z m168 0 c0 -8 -4 -14 -10 -14 -5 0 -10 9 -10 21 0 11 5 17 10 14
6 -3 10 -13 10 -21z m-670 -15 c0 -6 -4 -7 -10 -4 -5 3 -10 11 -10 16 0 6 5 7
10 4 6 -3 10 -11 10 -16z m629 -27 c-12 -36 -34 -45 -23 -9 7 24 25 50 30 44
2 -2 -1 -18 -7 -35z m1078 8 c1 -11 -2 -20 -8 -20 -5 0 -9 9 -9 20 0 11 4 20
8 20 4 0 8 -9 9 -20z m-2842 -43 c4 -23 2 -37 -4 -37 -6 0 -11 19 -11 42 0 49
7 47 15 -5z m1796 10 c-8 -8 -11 -7 -11 4 0 20 13 34 18 19 3 -7 -1 -17 -7
-23z m-2051 -33 c0 -23 5 -34 15 -34 18 0 28 -50 29 -150 1 -66 -1 -75 -16
-72 -12 2 -16 -2 -12 -12 3 -8 1 -17 -4 -20 -14 -8 -22 18 -11 35 5 8 9 26 9
40 0 26 -20 33 -49 15 -35 -22 -41 62 -11 149 11 32 20 69 20 83 0 21 2 22 15
12 8 -7 15 -28 15 -46z m1940 36 c-14 -10 -27 -17 -29 -14 -6 5 31 33 44 33 6
1 -1 -8 -15 -19z m340 -30 c0 -13 -1 -13 -10 0 -5 8 -10 22 -10 30 0 13 1 13
10 0 5 -8 10 -22 10 -30z m-320 16 c0 -3 -4 -8 -10 -11 -5 -3 -10 -1 -10 4 0
6 5 11 10 11 6 0 10 -2 10 -4z m287 -56 c-4 -57 -12 -57 -12 0 0 26 3 46 7 44
4 -3 6 -22 5 -44z m-2841 13 c-1 -16 -31 -80 -43 -93 -2 -2 -8 2 -13 10 -14
22 -27 -22 -26 -87 1 -33 -3 -53 -10 -53 -14 0 -26 28 -18 41 3 5 1 9 -4 9 -5
0 -12 16 -15 37 -7 39 1 63 13 43 5 -8 12 -7 24 5 9 10 14 20 11 23 -3 4 -9 1
-13 -5 -5 -9 -11 -6 -20 7 -7 12 -8 20 -2 20 5 0 10 -4 10 -8 0 -20 44 -3 57
21 15 29 29 37 19 11 -5 -14 -4 -15 8 -4 9 6 15 15 14 18 -1 11 2 22 6 22 2 0
3 -8 2 -17z m2564 2 c0 -8 -7 -15 -15 -15 -13 0 -14 3 -3 15 16 18 18 18 18 0z
m930 -6 c-7 -11 -14 -19 -16 -16 -7 7 7 37 17 37 6 0 5 -9 -1 -21z m-3633 -41
c-3 -8 -6 -5 -6 6 -1 11 2 17 5 13 3 -3 4 -12 1 -19z m1003 -82 c0 -14 -8 -8
-29 20 -15 21 -26 43 -23 48 7 12 51 -46 52 -68z m2795 14 c5 -7 -71 -50 -89
-50 -14 0 -4 40 12 49 22 13 69 14 77 1z m-2845 -36 c0 -8 -4 -12 -10 -9 -5 3
-10 13 -10 21 0 8 5 12 10 9 6 -3 10 -13 10 -21z m2180 8 c0 -10 6 -24 13 -31
10 -11 5 -12 -25 -9 -38 4 -49 -4 -25 -19 17 -11 81 -10 90 2 4 6 6 -4 5 -20
-3 -42 6 -53 53 -65 32 -9 38 -14 29 -25 -7 -9 -8 -15 0 -20 10 -6 15 -125 4
-125 -3 0 -25 11 -49 24 -24 14 -46 22 -49 19 -3 -4 -6 -1 -6 5 0 7 6 12 14
12 8 0 17 4 20 9 4 5 -3 7 -14 4 -11 -3 -20 0 -20 6 0 6 7 11 15 11 27 0 16
16 -19 28 -19 7 -37 21 -39 30 -4 14 -5 13 -6 -3 -2 -29 -35 -56 -51 -42 -10
10 -11 4 -6 -26 5 -24 4 -37 -2 -33 -6 3 -13 -1 -16 -10 -10 -26 -59 40 -51
67 6 19 4 21 -11 14 -11 -4 -27 -10 -36 -12 -25 -7 -23 22 3 40 13 10 16 16 8
19 -9 3 -8 11 5 30 10 15 13 27 7 30 -19 6 13 53 39 56 13 2 30 12 37 22 7 10
26 21 41 23 15 2 30 5 35 6 4 0 7 -7 7 -17z m-2582 -73 c14 -61 15 -82 3 -75
-5 4 -12 25 -16 49 -3 23 -9 50 -11 60 -3 9 -1 17 4 17 5 0 14 -23 20 -51z
m336 14 c8 -16 20 -40 27 -55 6 -16 15 -28 20 -28 5 0 9 -7 9 -15 0 -8 5 -15
10 -15 16 0 12 -46 -6 -60 -12 -11 -15 -11 -12 1 2 8 -3 13 -10 11 -8 -1 -11
1 -8 6 7 11 -15 82 -26 82 -4 0 -6 -10 -4 -22 3 -13 5 -23 6 -23 1 0 4 -11 6
-25 2 -13 10 -28 17 -32 8 -5 6 -8 -8 -9 -11 0 -14 -3 -7 -6 6 -2 12 -9 12
-14 0 -16 -19 -10 -44 16 -14 14 -22 25 -19 25 4 0 2 5 -5 12 -7 7 -12 16 -12
22 0 6 5 5 12 -2 17 -17 33 -15 18 3 -9 11 -9 15 -1 15 7 0 9 5 5 12 -4 6 -9
37 -12 70 -4 64 7 75 32 31z m2034 7 c7 -11 8 -20 2 -20 -5 0 -14 9 -20 20 -6
11 -7 20 -3 20 5 0 14 -9 21 -20z m-2939 -79 c6 -36 16 -68 22 -72 8 -4 8 -12
2 -24 -8 -13 -13 -5 -26 42 -21 76 -27 110 -20 117 10 9 11 5 22 -63z m181 52
c0 -14 -14 -28 -47 -52 -38 -26 -41 -37 -14 -46 11 -3 22 -12 25 -21 4 -11 2
-12 -14 -4 -14 7 -23 6 -34 -6 -9 -8 -16 -11 -16 -5 0 6 -7 11 -15 11 -28 0
-15 27 36 79 47 46 79 64 79 44z m2661 -25 c11 -21 11 -22 -4 -9 -10 7 -17 17
-17 22 0 15 9 10 21 -13z m124 12 c3 -5 1 -10 -4 -10 -6 0 -11 5 -11 10 0 6 2
10 4 10 3 0 8 -4 11 -10z m-2356 -14 c7 -8 8 -17 3 -20 -6 -3 -12 3 -15 14 -6
24 -4 25 12 6z m1961 -29 c0 -6 -9 -2 -20 8 -11 10 -20 23 -20 28 0 6 9 2 20
-8 11 -10 20 -23 20 -28z m-1788 1 c-7 -7 -12 -8 -12 -2 0 14 12 26 19 19 2
-3 -1 -11 -7 -17z m262 -98 c0 -69 -4 -83 -22 -100 -13 -13 -23 -16 -28 -9 -3
6 3 17 15 25 l21 15 -21 28 c-17 23 -19 33 -10 47 9 16 10 15 11 -13 0 -18 4
-33 8 -33 5 0 8 18 8 39 -1 21 -4 37 -7 35 -12 -7 -17 33 -7 51 19 33 32 -3
32 -85z m-894 80 c0 -5 -4 -10 -10 -10 -5 0 -10 5 -10 10 0 6 5 10 10 10 6 0
10 -4 10 -10z m56 -55 c-23 -48 -52 -73 -36 -30 13 34 41 75 50 75 4 0 -2 -20
-14 -45z m591 39 c-3 -3 -12 -4 -19 -1 -8 3 -5 6 6 6 11 1 17 -2 13 -5z m1818
-4 c3 -5 1 -10 -4 -10 -6 0 -11 5 -11 10 0 6 2 10 4 10 3 0 8 -4 11 -10z m965
-30 c-19 -12 -30 -12 -30 -1 0 10 31 20 40 14 2 -2 -2 -8 -10 -13z m93 -59
c-7 -9 -22 15 -28 44 -7 30 -7 30 12 -5 10 -19 18 -37 16 -39z m-3557 -8 c-4
-11 -10 -11 -26 -3 -11 6 -20 15 -20 21 0 6 7 3 16 -5 22 -22 24 -20 18 17 -4
29 -4 30 6 8 6 -14 8 -31 6 -38z m3522 -24 c-8 -5 -19 3 -32 22 -18 29 -18 30
0 44 17 12 20 10 32 -23 10 -28 10 -37 0 -43z m-488 62 c0 -5 -7 -12 -16 -15
-24 -9 -28 -7 -14 9 14 17 30 20 30 6z m-2502 -37 c-4 -3 -12 5 -18 18 -12 22
-12 22 6 6 10 -10 15 -20 12 -24z m197 26 c3 -6 -1 -7 -9 -4 -18 7 -21 14 -7
14 6 0 13 -4 16 -10z m-875 -30 c0 -5 -4 -10 -10 -10 -5 0 -10 5 -10 10 0 6 5
10 10 10 6 0 10 -4 10 -10z m44 -15 c3 -8 1 -15 -3 -15 -5 0 -11 7 -15 15 -3
8 -1 15 3 15 5 0 11 -7 15 -15z m192 0 c-24 -18 -33 -19 -42 -3 -4 6 -3 8 2 5
6 -3 16 -2 24 4 24 14 37 10 16 -6z m744 -5 c8 -5 12 -11 10 -14 -3 -2 -14 2
-24 10 -22 15 -10 19 14 4z m55 1 c3 -5 1 -12 -5 -16 -5 -3 -10 1 -10 9 0 18
6 21 15 7z m-913 -33 c-7 -7 -10 -5 -7 8 5 29 6 30 12 16 3 -8 1 -18 -5 -24z
m438 -4 c16 -48 7 -53 -19 -9 -25 43 -25 45 -7 45 8 0 20 -16 26 -36z m44 20
c3 -9 4 -20 0 -25 -3 -5 0 -9 5 -9 6 0 11 -8 11 -17 0 -15 -2 -15 -14 -3 -19
19 -32 70 -18 70 5 0 13 -7 16 -16z m-619 -3 c-3 -5 5 -11 17 -13 12 -2 23 -8
25 -15 3 -8 -5 -7 -26 3 -30 15 -42 34 -20 34 5 0 8 -4 4 -9z m771 -43 l-16
-43 2 35 c1 19 6 41 11 48 18 23 19 5 3 -40z m-569 26 c-3 -3 -12 -4 -19 -1
-8 3 -5 6 6 6 11 1 17 -2 13 -5z m-71 -29 c4 -8 10 -13 14 -10 4 3 10 -2 14
-10 8 -22 -9 -27 -26 -7 -24 27 -30 42 -18 42 6 0 13 -7 16 -15z m1027 -47 c2
-32 1 -58 -4 -58 -5 0 -9 28 -9 62 0 75 6 73 13 -4z m-856 20 c-3 -8 -6 -5 -6
6 -1 11 2 17 5 13 3 -3 4 -12 1 -19z m561 -6 c6 -9 12 -23 11 -31 0 -11 -2
-12 -6 -3 -2 6 -11 12 -18 12 -13 0 -35 29 -35 44 0 10 35 -7 48 -22z m-763 8
c3 -5 -3 -10 -15 -10 -12 0 -18 5 -15 10 3 6 10 10 15 10 5 0 12 -4 15 -10z
m368 -55 c-13 -25 -26 -45 -28 -45 -9 0 19 66 33 78 23 18 23 16 -5 -33z m267
25 c0 -5 -4 -10 -9 -10 -6 0 -13 5 -16 10 -3 6 1 10 9 10 9 0 16 -4 16 -10z
m-559 -12 c0 -10 2 -10 6 0 2 6 11 12 18 12 17 0 26 -25 14 -37 -6 -6 -4 -23
6 -46 17 -42 19 -50 6 -43 -4 3 -14 26 -21 52 -12 44 -14 45 -28 28 -14 -19
-15 -19 -8 0 3 10 1 25 -5 32 -8 10 -8 14 0 14 6 0 11 -6 12 -12z m269 8 c0
-3 -4 -8 -10 -11 -5 -3 -10 -1 -10 4 0 6 5 11 10 11 6 0 10 -2 10 -4z m364
-12 c3 -8 2 -12 -4 -9 -6 3 -10 10 -10 16 0 14 7 11 14 -7z m-543 -11 c13 -16
12 -17 -3 -4 -10 7 -18 15 -18 17 0 8 8 3 21 -13z m2084 7 c3 -5 2 -10 -4 -10
-5 0 -13 5 -16 10 -3 6 -2 10 4 10 5 0 13 -4 16 -10z m-2348 -40 c-4 -14 4
-25 32 -41 20 -12 31 -24 24 -26 -14 -5 -59 25 -67 45 -6 13 2 42 11 42 3 0 3
-9 0 -20z m863 -16 c0 -8 6 -11 15 -8 11 4 15 -1 15 -17 0 -13 3 -35 7 -48 4
-17 3 -22 -6 -17 -6 4 -9 12 -6 17 4 5 2 9 -4 9 -9 0 -51 77 -51 94 0 5 7 3
15 -4 8 -7 15 -19 15 -26z m2371 -7 c12 -22 12 -22 -10 -3 -11 11 -21 23 -21
28 0 14 19 -1 31 -25z m-2829 -5 c-7 -2 -10 -13 -6 -28 5 -18 2 -24 -10 -24
-12 0 -15 6 -10 25 4 16 2 25 -6 25 -6 0 -9 4 -6 9 3 5 16 7 28 3 12 -3 17 -7
10 -10z m3398 3 c0 -8 -2 -15 -4 -15 -2 0 -6 7 -10 15 -3 8 -1 15 4 15 6 0 10
-7 10 -15z m-3532 -12 c5 -10 12 -36 15 -58 l6 -40 -18 35 c-26 50 -34 80 -22
80 6 0 14 -8 19 -17z m659 -17 c4 -26 3 -27 -11 -13 -19 18 -21 50 -4 45 6 -2
13 -17 15 -32z m-230 2 c-3 -8 -6 -5 -6 6 -1 11 2 17 5 13 3 -3 4 -12 1 -19z
m-51 -91 l3 -62 -8 52 c-5 29 -12 65 -15 80 -5 24 -5 25 5 10 6 -11 13 -47 15
-80z m394 78 c0 -9 -12 -20 -27 -25 -56 -21 -79 -36 -132 -90 -68 -69 -112
-136 -147 -222 -15 -38 -30 -66 -32 -63 -14 13 109 252 139 271 5 3 9 18 9 35
0 16 5 29 10 29 6 0 10 -5 10 -12 0 -6 10 -2 23 9 12 12 42 29 67 39 25 10 49
24 53 31 11 18 27 16 27 -2z m-523 -56 c-12 -25 -22 -69 -25 -115 -7 -105 -21
-99 -65 28 -15 42 -27 80 -27 85 1 22 41 -47 51 -89 15 -57 29 -53 29 8 0 46
10 75 38 107 22 25 22 22 -1 -24z m3307 -71 c-9 -29 -10 -25 -10 32 0 57 1 61
10 32 5 -20 5 -44 0 -64z m-558 65 c29 -38 66 -106 74 -136 7 -27 7 -29 -3
-13 -7 10 -27 38 -44 62 -18 24 -30 44 -27 44 3 0 -2 10 -10 22 -26 37 -16 55
10 21z m234 7 c0 -5 -4 -10 -10 -10 -5 0 -10 5 -10 10 0 6 5 10 10 10 6 0 10
-4 10 -10z m-807 -32 c7 -28 0 -368 -9 -423 -7 -43 -19 -72 -40 -93 -7 -7 -11
-18 -8 -25 2 -7 -5 -13 -18 -14 -13 -2 -46 -6 -75 -9 -57 -6 -114 7 -135 33
-12 15 -11 15 12 4 22 -11 22 -10 -4 12 -26 21 -30 32 -32 78 -1 34 3 60 12
69 26 30 53 106 60 170 4 36 9 59 11 52 3 -6 9 -9 15 -6 7 5 9 -2 4 -20 -5
-19 -2 -28 9 -32 8 -4 15 -10 15 -16 0 -14 26 -38 41 -38 41 0 62 66 39 126
-10 25 -8 30 18 50 15 12 37 41 47 63 23 47 30 50 38 19z m-1640 -10 c-24 -11
-43 -24 -43 -29 0 -5 -5 -9 -10 -9 -18 0 9 40 33 50 46 18 62 9 20 -12z m2456
-32 c-2 -19 -2 -19 -6 2 -2 12 -8 22 -13 22 -5 0 -8 -6 -6 -12 13 -41 17 -72
8 -63 -10 10 -17 53 -13 90 2 20 2 20 16 1 8 -11 14 -29 14 -40z m-3259 -6
c32 -29 47 -37 56 -29 9 8 11 6 8 -8 -3 -11 10 -37 32 -66 l38 -48 17 23 c23
30 32 19 18 -21 -16 -46 -5 -158 18 -184 18 -19 17 -20 -4 -8 -13 7 -23 21
-23 34 0 12 -5 29 -10 37 -8 12 -10 11 -10 -7 0 -29 -8 -29 -37 -1 -36 33 -30
52 13 43 20 -3 34 -3 31 2 -3 4 -10 27 -16 49 -7 26 -21 48 -37 59 -15 9 -24
13 -21 8 3 -5 -7 -14 -24 -20 -26 -10 -31 -9 -49 14 -11 14 -20 34 -20 44 0
11 -6 19 -13 19 -24 0 -48 36 -45 69 3 42 24 40 78 -9z m85 30 c3 -5 1 -10 -4
-10 -6 0 -11 5 -11 10 0 6 2 10 4 10 3 0 8 -4 11 -10z m1659 -151 c17 -58 21
-115 10 -144 -4 -8 -35 -36 -69 -60 -34 -25 -68 -52 -75 -60 -16 -19 -30 -19
-30 -1 0 20 -37 45 -59 39 -9 -2 -22 -18 -28 -34 -6 -16 -19 -29 -28 -29 -15
0 -15 1 -1 16 25 25 35 49 27 63 -6 9 -11 10 -15 2 -4 -6 -4 -15 -1 -21 6 -10
-13 -15 -47 -12 -10 1 -18 -3 -18 -9 0 -6 -7 -9 -15 -5 -10 4 -15 -1 -15 -14
0 -14 -7 -20 -24 -20 -13 0 -26 3 -29 8 -2 4 -3 2 -1 -4 1 -6 -2 -17 -7 -25
-7 -11 -9 -9 -9 8 0 12 -4 25 -10 28 -19 11 -11 37 9 30 14 -4 20 1 24 25 4
18 13 30 22 30 8 0 15 6 15 14 0 24 31 49 44 36 8 -8 7 -15 -6 -24 -9 -6 -18
-20 -20 -31 -2 -15 4 -19 34 -22 31 -4 37 -2 32 11 -4 11 0 16 14 16 16 0 19
5 16 23 l-5 22 17 -22 c35 -48 63 -18 65 69 1 29 4 42 6 28 6 -32 20 -47 33
-34 6 6 6 23 1 44 -19 74 -21 100 -8 100 16 0 82 68 91 95 6 16 11 11 25 -30
10 -27 26 -75 35 -106z m-1854 126 c0 -8 -7 -15 -15 -15 -8 0 -15 -4 -15 -9 0
-23 71 -183 108 -244 40 -66 43 -88 6 -44 -10 12 -27 38 -37 57 -10 19 -24 46
-31 60 -18 33 -56 150 -56 173 0 9 7 17 15 17 8 0 15 5 15 10 0 6 2 10 5 10 3
0 5 -7 5 -15z m1170 1 c0 -2 -8 -10 -17 -17 -16 -13 -17 -12 -4 4 13 16 21 21
21 13z m2050 -6 c0 -5 -4 -10 -10 -10 -5 0 -10 5 -10 10 0 6 5 10 10 10 6 0
10 -4 10 -10z m95 -75 c7 -36 9 -65 5 -65 -5 0 -11 24 -15 53 -3 28 -9 61 -12
72 -3 11 -2 17 2 13 5 -4 14 -37 20 -73z m-2798 -27 c-2 -18 -4 -6 -4 27 0 33
2 48 4 33 2 -15 2 -42 0 -60z m2860 50 c-3 -7 -5 -2 -5 12 0 14 2 19 5 13 2
-7 2 -19 0 -25z m-2937 8 c0 -3 -4 -8 -10 -11 -5 -3 -10 -1 -10 4 0 6 5 11 10
11 6 0 10 -2 10 -4z m3130 -51 c7 -9 8 -15 2 -15 -5 0 -12 7 -16 15 -3 8 -4
15 -2 15 2 0 9 -7 16 -15z m-1170 -15 c0 -5 -2 -10 -4 -10 -3 0 -8 5 -11 10
-3 6 -1 10 4 10 6 0 11 -4 11 -10z m-1137 -12 c16 -12 16 -14 -2 -25 -15 -9
-23 -9 -40 3 -11 8 -21 19 -21 25 0 13 43 11 63 -3z m352 -20 c-9 -39 -11 -42
-24 -33 -15 8 -14 38 1 53 21 21 30 13 23 -20z m-1517 -3 c-3 -3 -9 2 -12 12
-6 14 -5 15 5 6 7 -7 10 -15 7 -18z m-38 -21 c0 -8 -4 -14 -10 -14 -5 0 -10 9
-10 21 0 11 5 17 10 14 6 -3 10 -13 10 -21z m810 16 c0 -5 -5 -10 -11 -10 -5
0 -7 5 -4 10 3 6 8 10 11 10 2 0 4 -4 4 -10z m1538 -8 c6 -18 -15 -14 -22 4
-4 10 -1 14 6 12 6 -2 14 -10 16 -16z m-2216 -9 c22 -20 24 -48 2 -39 -8 3
-13 2 -10 -2 2 -4 1 -14 -3 -21 -10 -16 -36 42 -27 64 7 19 15 19 38 -2z
m1006 -3 c1 -8 -7 -21 -18 -28 -11 -7 -19 -9 -18 -5 1 5 -4 18 -11 31 -12 22
-11 23 16 20 15 -2 29 -10 31 -18z m2445 -66 c14 -35 24 -64 22 -64 -7 0 -75
118 -75 128 0 30 30 -6 53 -64z m-3223 50 c0 -8 -4 -12 -10 -9 -5 3 -10 10
-10 16 0 5 5 9 10 9 6 0 10 -7 10 -16z m710 -24 c0 -4 -9 -10 -20 -13 -15 -4
-20 0 -20 13 0 13 5 17 20 13 11 -3 20 -9 20 -13z m454 8 c16 -17 5 -62 -18
-66 -9 -2 -24 5 -31 15 -12 16 -11 21 7 41 25 26 26 26 42 10z m-1067 -75 c-3
-10 -5 -2 -5 17 0 19 2 27 5 18 2 -10 2 -26 0 -35z m1123 0 c0 -13 -20 -19
-20 -5 0 4 -3 18 -6 32 -5 24 -5 24 10 6 9 -11 16 -26 16 -33z m-1101 -55
c-12 -29 -25 -64 -30 -77 -5 -13 -12 -21 -15 -19 -5 5 0 17 40 111 24 57 29
44 5 -15z m1022 31 c-16 -6 -28 -6 -35 1 -7 7 1 10 25 9 32 0 33 -1 10 -10z
m-1198 -58 c15 -22 29 -52 33 -67 l7 -27 -32 28 c-21 20 -28 31 -19 36 8 5 7
14 -5 33 -17 25 -21 36 -13 36 2 0 15 -18 29 -39z m1685 27 c17 -17 15 -38 -4
-38 -10 0 -14 6 -11 14 3 7 0 19 -6 25 -6 6 -7 11 -1 11 6 0 15 -5 22 -12z
m87 2 c-11 -5 -31 -8 -45 -8 -23 0 -22 1 5 8 42 11 65 11 40 0z m-1068 -6 c-3
-3 -12 -4 -19 -1 -8 3 -5 6 6 6 11 1 17 -2 13 -5z m1840 -10 c-3 -3 -12 -4
-19 -1 -8 3 -5 6 6 6 11 1 17 -2 13 -5z m-1891 -17 c-17 -12 -17 -14 -2 -20 9
-4 16 -11 16 -17 0 -6 -5 -8 -11 -4 -13 8 -104 7 -132 -2 -12 -4 -17 -2 -13 4
3 5 27 13 53 17 26 4 56 13 67 21 26 18 46 19 22 1z m110 2 c3 -6 2 -15 -4
-21 -6 -6 -11 -2 -15 11 -5 22 7 29 19 10z m877 4 c-7 -2 -21 -2 -30 0 -10 3
-4 5 12 5 17 0 24 -2 18 -5z m-56 -9 c-3 -3 -23 -8 -44 -10 -31 -3 -34 -2 -13
5 30 11 66 14 57 5z m-313 -19 c3 -8 1 -15 -4 -15 -6 0 -10 7 -10 15 0 8 2 15
4 15 2 0 6 -7 10 -15z m526 5 c0 -12 -8 -12 -35 0 -18 8 -17 9 8 9 15 1 27 -3
27 -9z m50 -6 c0 -8 -4 -12 -10 -9 -5 3 -10 10 -10 16 0 5 5 9 10 9 6 0 10 -7
10 -16z m-440 -14 c9 0 23 -6 29 -14 10 -12 6 -12 -28 -2 -22 6 -43 15 -48 20
-4 5 -3 6 5 2 7 -4 12 -2 13 6 0 10 2 10 6 1 2 -7 13 -13 23 -13z m55 10 c3
-5 2 -10 -4 -10 -5 0 -13 5 -16 10 -3 6 -2 10 4 10 5 0 13 -4 16 -10z m1510 0
c25 -11 -1 -11 -35 0 -20 6 -21 8 -5 8 11 0 29 -3 40 -8z m-2475 -25 c0 -6
-56 -35 -67 -35 -4 1 8 9 27 20 39 22 40 22 40 15z m1050 -5 c-20 -13 -43 -13
-35 0 3 6 16 10 28 10 18 0 19 -2 7 -10z m-1843 -6 c-3 -3 -12 -4 -19 -1 -8 3
-5 6 6 6 11 1 17 -2 13 -5z m1767 -9 c-4 -8 -1 -15 6 -15 6 0 8 -5 4 -11 -5
-8 -10 -6 -16 5 -5 9 -6 21 -3 26 9 15 15 12 9 -5z m383 -7 c-3 -8 -6 -5 -6 6
-1 11 2 17 5 13 3 -3 4 -12 1 -19z m360 0 c-3 -8 -6 -5 -6 6 -1 11 2 17 5 13
3 -3 4 -12 1 -19z m-2472 2 c3 -5 1 -10 -4 -10 -6 0 -11 5 -11 10 0 6 2 10 4
10 3 0 8 -4 11 -10z m1380 -11 c11 -17 2 -18 -19 -3 -17 12 -17 14 -4 14 9 0
20 -5 23 -11z m145 -4 c0 -8 -4 -15 -10 -15 -5 0 -10 7 -10 15 0 8 5 15 10 15
6 0 10 -7 10 -15z m-850 0 c0 -2 -13 -11 -30 -20 -38 -19 -40 -11 -2 9 31 17
32 18 32 11z m947 -15 c3 -10 2 -11 -4 -4 -4 6 -15 14 -23 17 -11 5 -9 6 4 4
11 -1 21 -9 23 -17z m263 10 c0 -5 -2 -10 -4 -10 -3 0 -8 5 -11 10 -3 6 -1 10
4 10 6 0 11 -4 11 -10z m-1555 -30 c10 -11 16 -20 13 -20 -3 0 -13 9 -23 20
-10 11 -16 20 -13 20 3 0 13 -9 23 -20z m1160 -11 c10 -15 1 -21 -21 -12 -10
5 -20 16 -20 25 -1 14 2 15 17 8 10 -6 21 -15 24 -21z m95 21 c0 -5 7 -10 15
-10 8 0 15 -4 15 -10 0 -6 -10 -5 -25 2 -25 11 -34 28 -15 28 6 0 10 -4 10
-10z m905 0 c-3 -5 -10 -10 -16 -10 -5 0 -9 5 -9 10 0 6 7 10 16 10 8 0 12 -4
9 -10z m-1628 -6 c-3 -3 -12 -4 -19 -1 -8 3 -5 6 6 6 11 1 17 -2 13 -5z m473
-4 c0 -5 -4 -10 -10 -10 -5 0 -10 5 -10 10 0 6 5 10 10 10 6 0 10 -4 10 -10z
m215 -23 c-6 -20 -5 -21 8 -5 8 10 17 15 20 12 3 -3 -4 -15 -15 -26 -24 -24
-50 -10 -29 16 7 8 9 21 5 27 -4 8 -3 9 5 5 7 -4 9 -17 6 -29z m100 23 c3 -5
1 -10 -4 -10 -6 0 -11 5 -11 10 0 6 2 10 4 10 3 0 8 -4 11 -10z m55 -20 c0 -5
-5 -10 -11 -10 -5 0 -7 5 -4 10 3 6 8 10 11 10 2 0 4 -4 4 -10z m-1447 -35
c24 -15 44 -45 31 -45 -4 0 -22 13 -41 30 -18 17 -40 30 -48 30 -7 0 -16 4
-20 9 -8 14 47 -3 78 -24z m1144 20 c8 -9 13 -18 11 -21 -3 -2 -13 5 -23 16
-21 23 -11 27 12 5z m250 -17 c-3 -8 -6 -5 -6 6 -1 11 2 17 5 13 3 -3 4 -12 1
-19z m110 -10 c-3 -8 -6 -5 -6 6 -1 11 2 17 5 13 3 -3 4 -12 1 -19z m258 2 c4
-6 12 -7 18 -4 8 5 8 2 -1 -7 -10 -11 -15 -10 -29 4 -10 10 -12 17 -6 17 7 0
15 -5 18 -10z m832 -32 c-3 -8 -6 -5 -6 6 -1 11 2 17 5 13 3 -3 4 -12 1 -19z"/>
<path d="M1757 3273 c-14 -13 -6 -24 15 -21 27 4 36 28 11 28 -11 0 -23 -3
-26 -7z"/>
<path d="M2350 3420 l-55 -7 63 -1 c40 -1 61 2 57 8 -3 6 -7 9 -8 8 -1 -1 -27
-4 -57 -8z"/>
<path d="M2440 3420 c-12 -7 -8 -10 15 -10 17 0 37 5 45 10 12 7 8 10 -15 10
-16 0 -37 -5 -45 -10z"/>
<path d="M2233 3413 c9 -2 23 -2 30 0 6 3 -1 5 -18 5 -16 0 -22 -2 -12 -5z"/>
<path d="M1560 2979 c1 -8 7 -25 15 -39 13 -22 14 -23 14 -5 0 11 -6 29 -14
39 -11 14 -15 16 -15 5z"/>
<path d="M1540 2910 c0 -21 51 -110 80 -140 37 -38 43 -13 6 27 -13 14 -34 47
-47 74 -21 45 -39 63 -39 39z"/>
<path d="M1690 2899 c0 -8 7 -24 15 -35 11 -15 14 -16 15 -3 0 8 -7 24 -15 35
-11 15 -14 16 -15 3z"/>
<path d="M2977 2514 c-9 -9 4 -34 18 -34 8 0 11 8 8 20 -5 20 -15 25 -26 14z"/>
<path d="M782 2245 c0 -16 2 -22 5 -12 2 9 2 23 0 30 -3 6 -5 -1 -5 -18z"/>
<path d="M855 2200 c-3 -5 1 -10 9 -10 9 0 16 5 16 10 0 6 -4 10 -9 10 -6 0
-13 -4 -16 -10z"/>
<path d="M772 2175 c0 -16 2 -22 5 -12 2 9 2 23 0 30 -3 6 -5 -1 -5 -18z"/>
<path d="M710 2161 c0 -6 4 -13 10 -16 6 -3 7 1 4 9 -7 18 -14 21 -14 7z"/>
<path d="M835 2060 c-3 -5 1 -10 9 -10 9 0 16 5 16 10 0 6 -4 10 -9 10 -6 0
-13 -4 -16 -10z"/>
<path d="M919 2061 c11 -7 9 -11 -9 -21 -12 -6 -24 -9 -27 -6 -8 8 -32 -27
-26 -37 3 -4 10 -4 16 2 12 9 18 11 38 11 5 0 7 5 4 10 -3 6 0 10 8 10 32 0 4
-38 -40 -55 -24 -9 -42 -19 -39 -22 3 -3 22 2 42 12 26 12 50 16 80 11 26 -3
44 -2 44 4 0 9 -28 15 -57 11 -16 -2 -16 0 -3 33 8 21 6 27 -10 36 -23 12 -40
13 -21 1z"/>
<path d="M789 2003 c-13 -16 -12 -17 4 -4 9 7 17 15 17 17 0 8 -8 3 -21 -13z"/>
<path d="M785 1940 c-3 -6 1 -7 9 -4 18 7 21 14 7 14 -6 0 -13 -4 -16 -10z"/>
<path d="M965 1940 c-3 -5 -1 -10 4 -10 6 0 11 5 11 10 0 6 -2 10 -4 10 -3 0
-8 -4 -11 -10z"/>
<path d="M893 1893 c15 -2 37 -2 50 0 12 2 0 4 -28 4 -27 0 -38 -2 -22 -4z"/>
<path d="M290 1858 c0 -17 3 -19 12 -10 7 7 26 12 43 13 26 0 27 2 10 9 -39
17 -65 12 -65 -12z"/>
<path d="M270 1826 c0 -2 7 -7 16 -10 8 -3 12 -2 9 4 -6 10 -25 14 -25 6z"/>
<path d="M3300 1880 c0 -5 5 -10 11 -10 5 0 7 5 4 10 -3 6 -8 10 -11 10 -2 0
-4 -4 -4 -10z"/>
<path d="M3360 1730 c6 -11 13 -20 16 -20 2 0 0 9 -6 20 -6 11 -13 20 -16 20
-2 0 0 -9 6 -20z"/>
<path d="M3386 1635 c-3 -8 -12 -15 -19 -15 -8 0 -20 -7 -27 -15 -8 -9 -9 -15
-2 -15 6 0 14 5 18 11 4 6 19 9 36 5 18 -3 27 -2 23 4 -3 6 -1 10 5 10 8 0 10
-9 6 -25 -6 -22 -3 -25 19 -25 27 0 34 15 10 24 -8 3 -15 14 -15 25 0 29 -43
42 -54 16z"/>
<path d="M3590 1424 c0 -3 9 -17 20 -31 21 -27 27 -15 10 18 -10 18 -30 27
-30 13z"/>
<path d="M1517 1990 c-3 -11 -1 -23 4 -26 5 -3 9 6 9 20 0 31 -6 34 -13 6z"/>
<path d="M1515 1940 c3 -5 8 -10 11 -10 2 0 4 5 4 10 0 6 -5 10 -11 10 -5 0
-7 -4 -4 -10z"/>
<path d="M480 1895 c-7 -9 -11 -17 -9 -20 3 -2 10 5 17 15 14 24 10 26 -8 5z"/>
<path d="M644 1868 l-19 -23 23 19 c21 18 27 26 19 26 -2 0 -12 -10 -23 -22z"/>
<path d="M756 1789 c-8 -42 0 -50 9 -9 4 17 5 34 2 36 -2 3 -7 -10 -11 -27z"/>
<path d="M811 1764 c0 -11 3 -14 6 -6 3 7 2 16 -1 19 -3 4 -6 -2 -5 -13z"/>
<path d="M842 1593 c2 -9 8 -18 15 -20 7 -3 9 3 6 16 -6 25 -26 28 -21 4z"/>
<path d="M960 1565 c0 -5 5 -17 10 -25 5 -8 10 -10 10 -5 0 6 -5 17 -10 25 -5
8 -10 11 -10 5z"/>
<path d="M1580 1906 c0 -3 9 -10 20 -16 11 -6 20 -8 20 -6 0 3 -9 10 -20 16
-11 6 -20 8 -20 6z"/>
<path d="M945 1770 c3 -5 8 -10 11 -10 2 0 4 5 4 10 0 6 -5 10 -11 10 -5 0 -7
-4 -4 -10z"/>
<path d="M2860 1684 c0 -8 5 -12 10 -9 6 4 8 11 5 16 -9 14 -15 11 -15 -7z"/>
<path d="M2951 1603 c7 -12 15 -20 18 -17 3 2 -3 12 -13 22 -17 16 -18 16 -5
-5z"/>
<path d="M3120 1206 c0 -9 5 -16 10 -16 6 0 10 4 10 9 0 6 -4 13 -10 16 -5 3
-10 -1 -10 -9z"/>
<path d="M3200 1165 c0 -9 9 -15 25 -15 14 0 25 5 25 12 0 6 -3 8 -6 5 -4 -3
-15 -2 -25 4 -15 7 -19 6 -19 -6z"/>
<path d="M3137 1139 c-9 -5 -22 -7 -27 -4 -6 3 -10 2 -10 -3 0 -6 16 -10 35
-9 22 1 35 6 35 14 0 15 -9 16 -33 2z"/>
<path d="M3330 1066 c0 -8 5 -18 10 -21 6 -3 10 3 10 14 0 12 -4 21 -10 21 -5
0 -10 -6 -10 -14z"/>
<path d="M2510 404 c0 -9 32 -38 57 -51 19 -10 23 -9 23 2 0 7 8 16 18 18 9 3
1 5 -19 6 -20 0 -42 8 -49 16 -12 15 -30 20 -30 9z"/>
<path d="M2513 337 c0 -18 8 -27 31 -35 41 -15 69 -15 60 -1 -3 6 0 15 7 20
10 6 2 9 -22 9 -20 0 -42 7 -49 15 -18 21 -27 19 -27 -8z"/>
<path d="M1720 385 c-14 -16 -3 -20 19 -6 8 5 9 11 3 15 -5 3 -15 -1 -22 -9z"/>
<path d="M3970 2010 c0 -5 5 -10 10 -10 6 0 10 5 10 10 0 6 -4 10 -10 10 -5 0
-10 -4 -10 -10z"/>
<path d="M3940 1999 c0 -5 5 -7 10 -4 6 3 10 8 10 11 0 2 -4 4 -10 4 -5 0 -10
-5 -10 -11z"/>
</g>
</svg>
